<?xml version="1.0" encoding="UTF-8" standalone="no"?>
<!-- Created with Inkscape (http://www.inkscape.org/) -->

<svg
   xmlns:dc="http://purl.org/dc/elements/1.1/"
   xmlns:cc="http://creativecommons.org/ns#"
   xmlns:rdf="http://www.w3.org/1999/02/22-rdf-syntax-ns#"
   xmlns:svg="http://www.w3.org/2000/svg"
   xmlns="http://www.w3.org/2000/svg"
   xmlns:sodipodi="http://sodipodi.sourceforge.net/DTD/sodipodi-0.dtd"
   xmlns:inkscape="http://www.inkscape.org/namespaces/inkscape"
   id="svg4211"
   version="1.1"
   inkscape:version="0.91 r13725"
   width="3060"
   height="4080"
   viewBox="0 0 3060 4080"
   sodipodi:docname="draw.svg"
   enable-background="new">
  <metadata
     id="metadata4217">
    <rdf:RDF>
      <cc:Work
         rdf:about="">
        <dc:format>image/svg+xml</dc:format>
        <dc:type
           rdf:resource="http://purl.org/dc/dcmitype/StillImage" />
        <dc:title></dc:title>
      </cc:Work>
    </rdf:RDF>
  </metadata>
  <defs
     id="defs4215" />
  <sodipodi:namedview
     pagecolor="#ffffff"
     bordercolor="#666666"
     borderopacity="1"
     objecttolerance="10"
     gridtolerance="10"
     guidetolerance="10"
     inkscape:pageopacity="0"
     inkscape:pageshadow="2"
     inkscape:window-width="1366"
     inkscape:window-height="768"
     id="namedview4213"
     showgrid="false"
     showguides="true"
     inkscape:zoom="0.064780053"
     inkscape:cx="-1354.4055"
     inkscape:cy="1714.1858"
     inkscape:window-x="0"
     inkscape:window-y="0"
     inkscape:window-maximized="1"
     inkscape:current-layer="layer11" />
  <g
     inkscape:groupmode="layer"
     id="layer6"
     inkscape:label="Hand"
     style="opacity:1">
    <g
       inkscape:groupmode="layer"
       id="layer13"
       inkscape:label="Pile 1">
      <path
         style="fill:#dcdcdc;fill-opacity:1;fill-rule:evenodd;stroke:none;stroke-width:1px;stroke-linecap:butt;stroke-linejoin:miter;stroke-opacity:1"
         d="m 1746.4803,2944.7878 1009.6839,-109.155 c 0,0 76.4085,-442.0778 76.4085,-605.8103 0,-163.7326 21.8215,-344.0476 21.8215,-344.0476 l -807.7376,-338.1713 -382.0425,-758.62738 10.9154,889.61338 z"
         id="path4871"
         inkscape:connector-curvature="0"
         sodipodi:nodetypes="ccsccccc" />
    </g>
    <g
       inkscape:groupmode="layer"
       id="layer12"
       inkscape:label="Pile">
      <path
         style="fill:#ebebeb;fill-rule:evenodd;stroke:none;stroke-width:1px;stroke-linecap:butt;stroke-linejoin:miter;stroke-opacity:1;fill-opacity:1"
         d="m 1741.0225,1891.4419 1113.3812,-5.4577 c 0,0 -21.831,-332.9228 -87.324,-583.9794 -65.493,-251.0565 -191.0213,-545.77506 -191.0213,-545.77506 l -911.4444,27.28875 z"
         id="path4868"
         inkscape:connector-curvature="0" />
    </g>
    <g
       inkscape:groupmode="layer"
       id="layer10"
       inkscape:label="Thumb"
       style="display:inline">
      <path
         style="display:inline;opacity:1;fill:#c8c8c8;fill-opacity:1;fill-rule:evenodd;stroke:none;stroke-width:1px;stroke-linecap:butt;stroke-linejoin:miter;stroke-opacity:1"
         d="m 1240.0868,2926.0971 c 0,0 270.3032,70.5757 384.6676,-57.661 106.6283,-119.5622 296.6538,-228.6353 383.3669,-272.4762 86.7131,-43.8408 97.107,-54.4543 135.3702,-159.4618 23.4389,-64.3248 134.377,-169.7957 191.6834,-221.6443 57.3064,-51.8486 49.8622,-55.9821 71.6932,-121.4751 21.831,-65.493 49.1198,-163.7325 177.3769,-256.5143 128.2572,-92.7818 -76.4085,-171.9191 -174.648,-133.7149 -98.2395,38.2043 -204.2439,105.4629 -268.2291,209.4613 -19.504,31.7009 -119.7802,96.2604 -127.7086,43.4681 -10.4377,-69.5014 -302.6544,317.4056 -302.6544,317.4056 z"
         id="path4856"
         inkscape:connector-curvature="0"
         sodipodi:nodetypes="cszssssssscc" />
    </g>
    <g
       inkscape:groupmode="layer"
       id="layer11"
       inkscape:label="Card"
       style="">
      <path
         style="fill:#f5f5f5;fill-rule:evenodd;stroke:none;stroke-width:1px;stroke-linecap:butt;stroke-linejoin:miter;stroke-opacity:1;fill-opacity:1"
         d="m 1484.5082,1738.6249 1031.5149,92.7818 c 0,0 169.1903,-305.6341 240.1411,-633.0991 70.9507,-327.46509 65.493,-589.43713 65.493,-589.43713 l -955.1064,0 c 0,0 -163.7325,311.09179 -300.1763,654.93013 -136.4438,343.8383 -81.8663,474.8243 -81.8663,474.8243 z"
         id="path4865"
         inkscape:connector-curvature="0" />
    </g>
    <g
       inkscape:groupmode="layer"
       id="layer9"
       inkscape:label="Fingers"
       style="display:inline">
      <path
         style="fill:#c8c8c8;fill-opacity:1;fill-rule:evenodd;stroke:none;stroke-width:1px;stroke-linecap:butt;stroke-linejoin:miter;stroke-opacity:1"
         d="m 2052.1143,1836.8644 c 71.6468,-178.3347 90.0529,-207.3945 139.1727,-362.9404 49.1197,-155.5459 43.6619,-106.4262 92.7817,-231.9545 49.1198,-125.5282 50.2796,-96.8839 81.8663,-193.7501 20.4665,-62.76413 -89.0859,-100.63577 -113.1916,-72.41216 -76.3281,89.36716 -81.4385,51.00386 -118.7628,99.70096 -61.8341,80.6752 -79.6346,64.1287 -134.9824,133.5209 -60.8346,76.2714 -133.3035,87.0497 -215.1697,152.5428 -81.8663,65.493 -105.5701,145.0986 -105.5701,145.0986 0,0 138.8104,956.6214 224.1252,755.6409 85.3148,-200.9805 78.0839,-247.1123 149.7307,-425.447 z"
         id="path4843"
         inkscape:connector-curvature="0"
         sodipodi:nodetypes="zsssssssczz" />
      <path
         style="fill:#c8c8c8;fill-opacity:1;fill-rule:evenodd;stroke:none;stroke-width:1px;stroke-linecap:butt;stroke-linejoin:miter;stroke-opacity:1"
         d="m 1325.6395,1409.4249 c 0,0 57.5652,-117.2459 210.3271,-204.5383 54.029,-30.8737 81.88,-50.6242 147.5866,-59.2929 21.7988,-2.8759 77.5615,-22.1012 97.5982,-28.9116 20.0367,-6.8105 66.8938,-25.0235 84.72,-34.9174 17.8262,-9.8938 46.2067,-19.8491 61.374,-31.9752 15.1673,-12.1261 75.9058,-59.65444 87.9658,-73.16159 48.2402,-54.02901 94.899,-71.98125 125.7957,-76.05395 36.6288,-4.82829 90.7484,28.57286 83.0299,65.23538 -21.8312,103.69736 -132.6179,171.73496 -132.6179,171.73496 l -416.5206,399.2346 z"
         id="path4845"
         inkscape:connector-curvature="0"
         sodipodi:nodetypes="cssssssssccc" />
      <path
         style="fill:#c8c8c8;fill-opacity:1;fill-rule:evenodd;stroke:none;stroke-width:1px;stroke-linecap:butt;stroke-linejoin:miter;stroke-opacity:1"
         d="m 986.55211,1427.0649 c 0,0 141.40789,-100.8693 209.30059,-136.7749 36.1915,-19.1402 89.9998,-31.0945 160.1636,-45.7198 73.1662,-15.2511 138.4063,-17.1577 190.9916,22.0964 84.6754,63.2089 -235.2043,262.5636 -235.2043,262.5636 z"
         id="path4847"
         inkscape:connector-curvature="0"
         sodipodi:nodetypes="cssscc" />
      <path
         style="fill:#c8c8c8;fill-opacity:1;fill-rule:evenodd;stroke:none;stroke-width:1px;stroke-linecap:butt;stroke-linejoin:miter;stroke-opacity:1"
         d="m 854.8156,1453.8058 c 0,0 25.08488,-48.2402 144.72047,-119.6356 119.63563,-71.3954 137.00203,-67.5362 262.42643,-32.8033 125.4244,34.7329 -260.4968,235.412 -260.4968,235.412 z"
         id="path4849"
         inkscape:connector-curvature="0" />
    </g>
    <g
       inkscape:groupmode="layer"
       id="layer8"
       inkscape:label="Main"
       style="display:inline">
      <path
         style="fill:#dcdcdc;fill-opacity:1;fill-rule:evenodd;stroke:none;stroke-width:1px;stroke-linecap:butt;stroke-linejoin:miter;stroke-opacity:1"
         d="m 602.15077,2492.0379 c 0,0 -10.45743,-170.7887 22.20639,-387.7431 34.99474,-232.4364 135.61682,-498.9296 212.34951,-631.2497 24.90425,-36.2006 86.11611,-82.2713 135.05989,-90.7706 50.91494,-8.8416 89.51694,-3.7233 89.51694,-3.7233 0,0 186.8408,-94.4136 302.6171,-13.3701 167.625,-41.756 270.613,-3.1168 360.231,77.7327 214.2184,-22.8115 315.9824,11.6435 324.9331,191.3954 1.4378,28.8751 -29.1746,111.5444 -45.3195,139.5888 -23.0725,40.0779 -38.9917,117.7697 -70.5081,162.2286 -37.9883,96.0464 -11.7315,173.8474 8.2212,262.4837 49.1719,355.4281 -73.4967,320.7917 -251.8186,500.9884 -109.1636,212.3614 -124.6389,219.8753 -327.3376,284.3849 -370.03803,117.7659 -760.15133,-491.9457 -760.15133,-491.9457 z"
         id="path4840"
         inkscape:connector-curvature="0"
         sodipodi:nodetypes="cscscccsscccsc" />
    </g>
    <g
       inkscape:groupmode="layer"
       id="layer3"
       inkscape:label="Wrist"
       style="display:inline;opacity:1">
      <path
         style="fill:#c8c8c8;fill-opacity:1;fill-rule:evenodd;stroke:none;stroke-width:0;stroke-linecap:butt;stroke-linejoin:round;stroke-miterlimit:4;stroke-dasharray:none;stroke-opacity:1"
         d="m 191.59417,2609.0064 c 0,0 206.46788,-127.354 293.30016,-191.031 86.83229,-63.677 165.94615,-125.4244 302.9482,-115.7764 137.00204,9.648 322.24427,200.6791 322.24427,200.6791 0,0 236.9203,205.5057 222.0418,418.7647 1.2292,52.8695 -8.722,59.2676 -53.1376,119.3535 -92.7935,119.7783 -186.5726,210.4723 -287.06039,331.5242 -48.95499,46.5194 -106.87706,87.7249 -152.22281,107.9858 -90.6915,40.5217 -648.11363,-871.4999 -648.11363,-871.4999 z"
         id="path4805"
         inkscape:connector-curvature="0"
         sodipodi:nodetypes="cssccccsc" />
    </g>
    <g
       inkscape:groupmode="layer"
       id="layer5"
       inkscape:label="Wrist end"
       style="display:inline">
      <path
         style="fill:#dcdcdc;fill-opacity:1;fill-rule:evenodd;stroke:none;stroke-width:8;stroke-linecap:butt;stroke-linejoin:round;stroke-miterlimit:4;stroke-dasharray:none;stroke-opacity:1"
         d="m 474.25714,3487.8058 c 139.2345,66.9375 319.47235,25.6902 379.50761,-15.2429 60.03526,-40.9331 98.23952,-109.155 87.32402,-248.3277 -10.9155,-139.1726 -66.27415,-258.2514 -218.31004,-436.62 -95.40268,-111.9265 -214.80132,-211.2539 -381.46076,-208.1937 -224.46725,4.1217 -266.013559,120.7311 -259.025691,335.3205 10.848871,170.9173 99.067691,295.9551 161.148411,376.8033 62.08072,80.8482 141.68534,147.5244 230.81645,196.2605 z"
         id="path4788"
         inkscape:connector-curvature="0"
         sodipodi:nodetypes="csssscsc" />
    </g>
  </g>
</svg>
