<?xml version="1.0" encoding="UTF-8" standalone="no"?>
<!-- Created with Inkscape (http://www.inkscape.org/) -->

<svg
   xmlns:dc="http://purl.org/dc/elements/1.1/"
   xmlns:cc="http://creativecommons.org/ns#"
   xmlns:rdf="http://www.w3.org/1999/02/22-rdf-syntax-ns#"
   xmlns:svg="http://www.w3.org/2000/svg"
   xmlns="http://www.w3.org/2000/svg"
   xmlns:sodipodi="http://sodipodi.sourceforge.net/DTD/sodipodi-0.dtd"
   xmlns:inkscape="http://www.inkscape.org/namespaces/inkscape"
   width="112.88899mm"
   height="142.90492mm"
   viewBox="0 0 400.00036 506.35602"
   id="svg2"
   version="1.1"
   inkscape:version="0.91 r13725"
   sodipodi:docname="target.svg">
  <defs
     id="defs4" />
  <sodipodi:namedview
     id="base"
     pagecolor="#ffffff"
     bordercolor="#666666"
     borderopacity="1.0"
     inkscape:pageopacity="0.0"
     inkscape:pageshadow="2"
     inkscape:zoom="1.0869205"
     inkscape:cx="117.40831"
     inkscape:cy="215.01861"
     inkscape:document-units="px"
     inkscape:current-layer="layer4"
     showgrid="false"
     fit-margin-top="0"
     fit-margin-left="0"
     fit-margin-right="0"
     fit-margin-bottom="0"
     inkscape:window-width="1366"
     inkscape:window-height="715"
     inkscape:window-x="-8"
     inkscape:window-y="-8"
     inkscape:window-maximized="1">
    <inkscape:grid
       type="xygrid"
       id="grid4752"
       originx="56.571424"
       originy="-182.52404" />
  </sodipodi:namedview>
  <metadata
     id="metadata7">
    <rdf:RDF>
      <cc:Work
         rdf:about="">
        <dc:format>image/svg+xml</dc:format>
        <dc:type
           rdf:resource="http://purl.org/dc/dcmitype/StillImage" />
        <dc:title />
      </cc:Work>
    </rdf:RDF>
  </metadata>
  <g
     inkscape:groupmode="layer"
     id="layer4"
     inkscape:label="Pants"
     transform="translate(56.571379,-363.48207)">
    <path
       style="fill:#82804d;fill-opacity:1;fill-rule:evenodd;stroke:none;stroke-width:1px;stroke-linecap:butt;stroke-linejoin:miter;stroke-opacity:1"
       d="m 78.978552,662.54154 c -8.787681,18.27924 1.323615,68.5508 3.82878,99.99855 2.505165,31.44778 9.343077,41.65724 7.234932,89.68009 0,0 -5.611485,4.94424 -9.782389,7.66962 -4.170904,2.72542 -15.638617,1.54096 -15.387112,8.25961 14.263317,1.99885 20.148761,0.7452 32.105554,-4.71977 0.747343,-3.69508 2.312016,-11.20946 2.312016,-11.20946 2.745667,-26.38677 2.196077,-54.83185 -0.231163,-75.67256 0.227633,-27.62538 -1.000325,-35.81563 0,-50.52542 1.03875,-15.27482 7.25278,-32.65962 22.61388,-32.91424 15.3611,-0.25462 27.12527,22.41617 27.61656,40.92458 0.50825,19.14691 0.8924,38.0108 1.23774,57.88197 0.34451,19.82301 -3.40719,33.93372 -9.36365,59.77349 0,0 -0.0141,3.67216 2.28917,11.10174 8.20299,6.10211 10.9966,7.86402 29.19679,6.7214 -4.2187,-7.48481 -7.13889,-7.88896 -16.48359,-11.84276 -3.00251,-3.51133 -3.34266,-6.62814 -3.34266,-6.62814 3.97553,-15.16954 9.89632,-44.74839 12.60246,-66.36668 2.7131,-21.67389 6.63819,-45.78189 8.77368,-65.77674 2.27766,-21.32596 7.19386,-24.71063 2.59105,-59.59409 z"
       id="path4735"
       inkscape:connector-curvature="0"
       sodipodi:nodetypes="csczccccsssscccccsscc" />
  </g>
  <g
     inkscape:groupmode="layer"
     id="layer3"
     inkscape:label="Arms"
     style="display:inline"
     transform="translate(56.571379,-363.48207)">
    <path
       style="display:inline;fill:#ce9a7c;fill-opacity:1;fill-rule:evenodd;stroke:#ffffff;stroke-width:1px;stroke-linecap:butt;stroke-linejoin:miter;stroke-opacity:1"
       d="m 64.814614,613.88466 c -9.772453,10.08158 -12.741255,25.98296 -15.765301,38.70428 -3.024047,12.72132 -2.119872,17.10245 -3.808182,20.94675 -3.662127,12.34936 -2.433575,15.8819 0.883081,22.57972 10.3329,-1.77275 10.271362,-1.73651 8.55342,-6.64511 3.079547,-3.23989 3.459761,-3.28973 0.283716,-10.86649 0.67988,-8.65268 18.276861,-39.958 19.610722,-45.73421 1.333862,-5.77621 0.01499,-29.06653 -9.757456,-18.98494 z"
       id="path4715"
       inkscape:connector-curvature="0"
       sodipodi:nodetypes="zzcccczz"
       inkscape:transform-center-x="3.6749002"
       inkscape:transform-center-y="4.6886693" />
    <path
       style="display:inline;fill:#ce9a7c;fill-opacity:1;fill-rule:evenodd;stroke:#ffffff;stroke-width:1px;stroke-linecap:butt;stroke-linejoin:miter;stroke-opacity:1"
       d="m 180.58855,611.89789 c 9.77245,10.08159 12.74126,25.98297 15.7653,38.70429 3.02404,12.72131 2.11987,17.10244 3.80818,20.94674 1.99344,12.34935 0.5563,15.25615 -2.76035,21.11961 -8.8728,3.33761 -9.69775,3.11313 -7.58872,-4.71567 -5.19148,-3.65708 -3.27724,-4.69771 0.62886,-11.33582 -0.67988,-8.65268 -18.27687,-39.958 -19.61073,-45.73421 -1.33386,-5.7762 -0.015,-29.06653 9.75746,-18.98494 z"
       id="path4715-0"
       inkscape:connector-curvature="0"
       sodipodi:nodetypes="zzcccczz"
       inkscape:transform-center-x="-3.6749019"
       inkscape:transform-center-y="4.6886692" />
  </g>
  <g
     inkscape:groupmode="layer"
     id="layer7"
     inkscape:label="Neck"
     transform="translate(56.571379,-363.48207)">
    <path
       style="fill:#ce9a7c;fill-opacity:1;fill-rule:evenodd;stroke:none;stroke-width:1px;stroke-linecap:butt;stroke-linejoin:miter;stroke-opacity:1"
       d="m 99.088993,530.58358 c 11.235367,-9.25739 17.699947,-9.62803 18.533477,-18.41997 0.83353,-8.79194 2.07729,-5.78137 -0.41717,-12.64499 4.59747,-2.90049 16.28095,-1.59712 16.28095,-1.59712 -2.99148,10.71872 -2.2306,5.43592 -2.84863,14.86787 -0.61803,9.43195 9.14457,9.3303 16.28095,15.2196 9.43453,7.78584 -11.89159,32.94995 -24.12337,32.83593 -12.55012,-0.11698 -33.392437,-22.28034 -23.706207,-30.26132 z"
       id="path4745"
       inkscape:connector-curvature="0"
       sodipodi:nodetypes="szcczsss" />
  </g>
  <g
     inkscape:groupmode="layer"
     id="layer6"
     inkscape:label="Head"
     transform="translate(56.571379,-363.48207)">
    <path
       style="fill:#e5ac8a;fill-opacity:1;fill-rule:evenodd;stroke:none;stroke-width:1px;stroke-linecap:butt;stroke-linejoin:miter;stroke-opacity:1"
       d="m 125.34016,443.89221 c -17.91503,0.40488 -34.746423,7.49767 -34.625318,31.70511 0.0919,18.36919 15.139118,29.08581 33.373798,29.20208 18.23469,0.11627 38.43513,-6.94512 38.79705,-32.95663 0.36191,-26.01151 -21.93977,-28.74296 -37.54553,-27.95056 z"
       id="path4748"
       inkscape:connector-curvature="0"
       sodipodi:nodetypes="cszzc" />
  </g>
  <g
     inkscape:groupmode="layer"
     id="layer2"
     inkscape:label="Poncho"
     style="display:inline;opacity:1"
     transform="translate(56.571379,-363.48207)">
    <path
       style="fill:#f4e38d;fill-opacity:1;fill-rule:evenodd;stroke:none;stroke-width:1px;stroke-linecap:butt;stroke-linejoin:miter;stroke-opacity:1"
       d="m 75.09198,540.7623 c 2.18991,-11.64972 0.332528,-8.6199 7.884282,-13.06975 4.67052,-2.75209 7.143909,-3.4472 12.386062,-3.4319 19.960886,0.0582 7.073856,-3.90431 10.174466,9.37627 4.81825,19.69309 29.03297,16.71928 32.27358,0.92281 3.70227,-18.04681 -6.3981,-12.65476 8.53542,-13.23029 4.58093,-0.17655 10.06628,-1.87418 12.30748,-1.94328 9.4991,-0.29289 5.17817,1.17006 11.29153,19.68648 7.8772,23.85883 16.14623,64.9272 22.39209,90.43304 5.41619,22.11776 5.89036,4.5563 -1.94329,20.72838 -7.83365,16.17208 -27.2493,55.45125 -36.43661,63.96649 -26.80185,24.84129 -19.74595,24.44442 -45.82915,4.53432 C 99.782031,712.36428 68.459745,684.59999 63.108385,671.93409 47.927703,636.00355 46.326562,659.92194 53.715838,634.04001 61.105112,608.15809 72.902071,552.41202 75.09198,540.7623 Z"
       id="path4148"
       inkscape:connector-curvature="0"
       sodipodi:nodetypes="zsscssssszssszz" />
    <path
       style="fill:#82804d;fill-opacity:1;fill-rule:evenodd;stroke:none;stroke-width:1px;stroke-linecap:butt;stroke-linejoin:miter;stroke-opacity:1"
       d="m 57.884743,617.99556 64.219257,48.90606 65.76577,-56.58797 -3.53331,-15.85255 -63.0668,49.07886 -59.655667,-40.76072 z"
       id="path4754"
       inkscape:connector-curvature="0"
       sodipodi:nodetypes="ccccccc" />
  </g>
  <g
     inkscape:groupmode="layer"
     id="layer5"
     inkscape:label="Hat"
     style="display:inline"
     transform="translate(56.571379,-363.48207)">
    <path
       style="fill:#f4e38d;fill-opacity:1;fill-rule:evenodd;stroke:none;stroke-width:1px;stroke-linecap:butt;stroke-linejoin:miter;stroke-opacity:1"
       d="m 66.747951,460.60111 c 29.259822,-0.005 82.012629,-0.19218 125.073859,0.58997 11.59722,0.21065 42.70967,-13.992 37.16817,-39.52806 -78.59862,-7.34049 -140.48851,-6.99021 -208.25977,-1.76991 -9.420727,21.50853 22.827216,40.71165 46.017741,40.708 z"
       id="path4738"
       inkscape:connector-curvature="0"
       sodipodi:nodetypes="ssccs" />
    <path
       style="display:inline;fill:#f4e38d;fill-opacity:1;fill-rule:evenodd;stroke:none;stroke-width:1px;stroke-linecap:butt;stroke-linejoin:miter;stroke-opacity:1"
       d="m 90.936763,426.97276 c -3.267199,-17.45 2.567682,-27.1701 5.604725,-33.62835 18.755382,-39.88311 33.855732,-40.33448 53.982352,1.76992 3.83836,8.02976 8.12674,14.23474 4.42478,32.4484 z"
       id="path4740"
       inkscape:connector-curvature="0"
       sodipodi:nodetypes="csscc" />
    <path
       style="fill:#82804d;fill-opacity:1;fill-rule:evenodd;stroke:none;stroke-width:1px;stroke-linecap:butt;stroke-linejoin:miter;stroke-opacity:1"
       d="m 89.674803,416.46656 66.658307,0.21147 c 0,0 0.4834,-6.80659 -1.60651,-12.38033 -13.50143,-2.67053 -51.91874,-2.93043 -63.385999,0.58889 -1.663703,8.57753 -1.665798,11.57997 -1.665798,11.57997 z"
       id="path4750"
       inkscape:connector-curvature="0"
       sodipodi:nodetypes="ccccc" />
  </g>
  <g
     inkscape:groupmode="layer"
     id="layer8"
     inkscape:label="Reticle"
     transform="translate(56.571379,-363.48207)">
    <circle
       style="opacity:1;fill:none;fill-opacity:1;stroke:#000000;stroke-width:8.00000048;stroke-linecap:butt;stroke-linejoin:round;stroke-miterlimit:4;stroke-dasharray:none;stroke-opacity:1"
       id="path4774"
       cx="144.17627"
       cy="575.90106"
       r="179.935" />
    <path
       style="fill:none;fill-rule:evenodd;stroke:#000000;stroke-width:4.00000024;stroke-linecap:butt;stroke-linejoin:miter;stroke-miterlimit:4;stroke-dasharray:none;stroke-opacity:1"
       d="m 143.95454,375.90217 0,400.00035"
       id="path4784"
       inkscape:connector-curvature="0" />
    <path
       style="fill:none;fill-rule:evenodd;stroke:#000000;stroke-width:4.00000024;stroke-linecap:butt;stroke-linejoin:miter;stroke-miterlimit:4;stroke-dasharray:none;stroke-opacity:1"
       d="m 343.42898,575.73556 -400.000359,0"
       id="path4784-6"
       inkscape:connector-curvature="0" />
  </g>
</svg>
